<?xml version="1.0" encoding="utf-8"?>
<!-- Svg Vector Icons : http://www.onlinewebfonts.com/icon -->
<!DOCTYPE svg PUBLIC "-//W3C//DTD SVG 1.1//EN" "http://www.w3.org/Graphics/SVG/1.1/DTD/svg11.dtd">
<svg version="1.1" xmlns="http://www.w3.org/2000/svg" xmlns:xlink="http://www.w3.org/1999/xlink" x="0px" y="0px" viewBox="0 0 1000 1000" enable-background="new 0 0 1000 1000" xml:space="preserve" fill="#FFFFFF">
<metadata> Svg Vector Icons : http://www.onlinewebfonts.com/icon </metadata>
<g><path d="M670.4,824.5c0-11.8-9.5-21.3-21.3-21.3H350.9c-11.8,0-21.3,9.5-21.3,21.3v85.2h-213v63.9h766.9v-63.9h-213V824.5z M926.1,26.4H73.9C38.6,26.4,10,54.9,10,90.2v596.5c0,35.3,28.6,63.9,63.9,63.9h852.2c35.3,0,63.9-28.6,63.9-63.9V90.2C990,54.9,961.4,26.4,926.1,26.4z M926.1,665.4c0,11.8-9.5,21.3-21.3,21.3H95.2c-11.8,0-21.3-9.5-21.3-21.3V111.5c0-11.8,9.5-21.3,21.3-21.3h809.6c11.8,0,21.3,9.5,21.3,21.3L926.1,665.4L926.1,665.4z M473.3,413c0,0,0.7-225.3,0.2-225.3C356,187.7,265.7,290,265.7,409.6s96.9,213.2,216.4,213.2c119.5,0,216.4-89.4,216.4-208.9C698.5,412.9,473.3,413,473.3,413z M508.2,154.2c1.7,0,0,224.1,0,224.1s226.2,0.7,226.2,0C734.3,258.7,627.7,154.2,508.2,154.2z"/></g>
</svg>